<svg xmlns="http://www.w3.org/2000/svg" version="1.1" xmlns:xlink="http://www.w3.org/1999/xlink" xmlns:svgjs="http://svgjs.dev/svgjs" width="1080" height="100" preserveAspectRatio="none" viewBox="0 0 1080 100"><g mask="url(&quot;#SvgjsMask1026&quot;)" fill="none"><rect width="1080" height="100" x="0" y="0" fill="#0e2a47"></rect><path d="M 0,24 C 43.2,25.8 129.6,37.6 216,33 C 302.4,28.4 345.6,-1.6 432,1 C 518.4,3.6 561.6,45 648,46 C 734.4,47 777.6,8.2 864,6 C 950.4,3.8 1036.8,29.2 1080,35L1080 100L0 100z" fill="#184a7e"></path><path d="M 0,89 C 72,83.8 216,65.4 360,63 C 504,60.6 576,78 720,77 C 864,76 1008,61.8 1080,58L1080 100L0 100z" fill="#2264ab"></path></g><defs><mask id="SvgjsMask1026"><rect width="1080" height="100" fill="#ffffff"></rect></mask></defs></svg>